# xmcd
#
# Track frame offsets: 
#        150
#        10083
#        19714
#        32205
#        43870
#        54551
#        63752
#        74604
#        85461
#        98234
#        107746
#        116848
#        128410
#        137771
#        152368
#        167407
#        185194
#        197920
#        211284
#        221423
#        235443
#        248685
#        260903
#        272877
#
# Disc length: 3781 seconds
#
# Revision: 3
# Processed by: cddbd v1.5.2PL0 Copyright (c) Steve Scherf et al.
# Submitted via: ExactAudioCopyFreeDBPlugin 1.0
#
DISCID=610ec318
DTITLE=Chet Atkins - 8 Classic Albums [Disc 4]
DYEAR=2013
DGENRE=Oldies
TTITLE0=Say 'Sí Sí'
TTITLE1=Vilia
TTITLE2=Sophisticated Lady
TTITLE3=Ay-Ay-Ay
TTITLE4=Nagasaki
TTITLE5=Yankee Doodle Dixie
TTITLE6=April In Portugal
TTITLE7=Jungle Drums
TTITLE8=In The Chapel In The Moonlight
TTITLE9=Martha
TTITLE10=Czardas
TTITLE11=You're Just In Love
TTITLE12=Armen's Theme
TTITLE13=Let It Be Me
TTITLE14=Theme From ''Picnic'
TTITLE15=Theme From 'A Dream'
TTITLE16=Estrellita
TTITLE17=Jitterbug Waltz
TTITLE18=Little Old Lady
TTITLE19=The Terry Theme From 'Limelight'
TTITLE20=The Three Bells
TTITLE21=Santa Lucia
TTITLE22=Greensleeves
TTITLE23=Meet Mr. Callaghan
EXTD=
EXTT0=
EXTT1=
EXTT2=
EXTT3=
EXTT4=
EXTT5=
EXTT6=
EXTT7=
EXTT8=
EXTT9=
EXTT10=
EXTT11=
EXTT12=
EXTT13=
EXTT14=
EXTT15=
EXTT16=
EXTT17=
EXTT18=
EXTT19=
EXTT20=
EXTT21=
EXTT22=
EXTT23=
PLAYORDER=
